<svg xmlns="http://www.w3.org/2000/svg" viewBox="0 0 800 400" width="800" height="400" role="img" aria-label="Six clusters side by side, each with its own colour and status">
  <title>Fleet Overview for Lens</title>
  <!--
    A fleet: six cluster cards laid out together, each with its cluster wheel, a status dot and
    resource bars. The banner is cropped to whatever shape it is shown in, so the cards keep a
    wide margin on either side.
  -->
  <defs>
    <linearGradient id="ground" x1="0" y1="0" x2="0" y2="1">
      <stop offset="0" stop-color="#252c3a"/>
      <stop offset="1" stop-color="#171c26"/>
    </linearGradient>
    <radialGradient id="glow" cx="0.5" cy="0.5" r="0.5">
      <stop offset="0" stop-color="#3d90ce" stop-opacity="0.18"/>
      <stop offset="1" stop-color="#3d90ce" stop-opacity="0"/>
    </radialGradient>
    <filter id="lift" x="-30%" y="-30%" width="160%" height="160%">
      <feDropShadow dx="0" dy="7" stdDeviation="9" flood-color="#000000" flood-opacity="0.4"/>
    </filter>
  </defs>

  <rect width="800" height="400" fill="url(#ground)"/>
  <ellipse cx="400" cy="200" rx="340" ry="190" fill="url(#glow)"/>

  <g filter="url(#lift)">
    <g transform="rotate(-4 148.0 200)">
      <rect x="104" y="128" width="88" height="144" rx="10" fill="#2b3342" stroke="#3b4557" stroke-width="1.5"/>
      <polygon points="148.0,145.0 169.1,155.2 174.3,178.0 159.7,196.3 136.3,196.3 121.7,178.0 126.9,155.2" fill="#3d90ce" stroke="#1f5f91" stroke-width="1.9" stroke-linejoin="round"/><g stroke="#ffffff" stroke-width="2.7" stroke-linecap="round" fill="none"><circle cx="148.0" cy="172" r="15.1"/><line x1="148.0" y1="167.7" x2="148.0" y2="150.9"/><line x1="151.4" y1="169.3" x2="164.5" y2="158.9"/><line x1="152.2" y1="173.0" x2="168.5" y2="176.7"/><line x1="149.9" y1="175.9" x2="157.1" y2="191.0"/><line x1="146.1" y1="175.9" x2="138.9" y2="191.0"/><line x1="143.8" y1="173.0" x2="127.5" y2="176.7"/><line x1="144.6" y1="169.3" x2="131.5" y2="158.9"/></g><circle cx="148.0" cy="172" r="4.3" fill="#ffffff"/>
      <circle cx="180" cy="140" r="4.5" fill="#4caf6a"/>
      <rect x="118" y="214" width="36" height="6" rx="3" fill="#ffffff" opacity="0.35"/><rect x="118" y="227" width="32" height="6" rx="3" fill="#ffffff" opacity="0.25"/><rect x="118" y="240" width="52" height="6" rx="3" fill="#ffffff" opacity="0.18"/>
    </g>
    <g transform="rotate(3 248.0 200)">
      <rect x="204" y="128" width="88" height="144" rx="10" fill="#2b3342" stroke="#3b4557" stroke-width="1.5"/>
      <polygon points="248.0,145.0 269.1,155.2 274.3,178.0 259.7,196.3 236.3,196.3 221.7,178.0 226.9,155.2" fill="#c34fb4" stroke="#7d2c73" stroke-width="1.9" stroke-linejoin="round"/><g stroke="#ffffff" stroke-width="2.7" stroke-linecap="round" fill="none"><circle cx="248.0" cy="172" r="15.1"/><line x1="248.0" y1="167.7" x2="248.0" y2="150.9"/><line x1="251.4" y1="169.3" x2="264.5" y2="158.9"/><line x1="252.2" y1="173.0" x2="268.5" y2="176.7"/><line x1="249.9" y1="175.9" x2="257.1" y2="191.0"/><line x1="246.1" y1="175.9" x2="238.9" y2="191.0"/><line x1="243.8" y1="173.0" x2="227.5" y2="176.7"/><line x1="244.6" y1="169.3" x2="231.5" y2="158.9"/></g><circle cx="248.0" cy="172" r="4.3" fill="#ffffff"/>
      <circle cx="280" cy="140" r="4.5" fill="#4caf6a"/>
      <rect x="218" y="214" width="42" height="6" rx="3" fill="#ffffff" opacity="0.35"/><rect x="218" y="227" width="36" height="6" rx="3" fill="#ffffff" opacity="0.25"/><rect x="218" y="240" width="58" height="6" rx="3" fill="#ffffff" opacity="0.18"/>
    </g>
    <g transform="rotate(-2 348.0 200)">
      <rect x="304" y="128" width="88" height="144" rx="10" fill="#2b3342" stroke="#3b4557" stroke-width="1.5"/>
      <polygon points="348.0,145.0 369.1,155.2 374.3,178.0 359.7,196.3 336.3,196.3 321.7,178.0 326.9,155.2" fill="#4caf6a" stroke="#2c6e3f" stroke-width="1.9" stroke-linejoin="round"/><g stroke="#ffffff" stroke-width="2.7" stroke-linecap="round" fill="none"><circle cx="348.0" cy="172" r="15.1"/><line x1="348.0" y1="167.7" x2="348.0" y2="150.9"/><line x1="351.4" y1="169.3" x2="364.5" y2="158.9"/><line x1="352.2" y1="173.0" x2="368.5" y2="176.7"/><line x1="349.9" y1="175.9" x2="357.1" y2="191.0"/><line x1="346.1" y1="175.9" x2="338.9" y2="191.0"/><line x1="343.8" y1="173.0" x2="327.5" y2="176.7"/><line x1="344.6" y1="169.3" x2="331.5" y2="158.9"/></g><circle cx="348.0" cy="172" r="4.3" fill="#ffffff"/>
      <circle cx="380" cy="140" r="4.5" fill="#e8a33d"/>
      <rect x="318" y="214" width="47" height="6" rx="3" fill="#ffffff" opacity="0.35"/><rect x="318" y="227" width="40" height="6" rx="3" fill="#ffffff" opacity="0.25"/><rect x="318" y="240" width="41" height="6" rx="3" fill="#ffffff" opacity="0.18"/>
    </g>
    <g transform="rotate(4 448.0 200)">
      <rect x="404" y="128" width="88" height="144" rx="10" fill="#2b3342" stroke="#3b4557" stroke-width="1.5"/>
      <polygon points="448.0,145.0 469.1,155.2 474.3,178.0 459.7,196.3 436.3,196.3 421.7,178.0 426.9,155.2" fill="#e8a33d" stroke="#9a6516" stroke-width="1.9" stroke-linejoin="round"/><g stroke="#ffffff" stroke-width="2.7" stroke-linecap="round" fill="none"><circle cx="448.0" cy="172" r="15.1"/><line x1="448.0" y1="167.7" x2="448.0" y2="150.9"/><line x1="451.4" y1="169.3" x2="464.5" y2="158.9"/><line x1="452.2" y1="173.0" x2="468.5" y2="176.7"/><line x1="449.9" y1="175.9" x2="457.1" y2="191.0"/><line x1="446.1" y1="175.9" x2="438.9" y2="191.0"/><line x1="443.8" y1="173.0" x2="427.5" y2="176.7"/><line x1="444.6" y1="169.3" x2="431.5" y2="158.9"/></g><circle cx="448.0" cy="172" r="4.3" fill="#ffffff"/>
      <circle cx="480" cy="140" r="4.5" fill="#4caf6a"/>
      <rect x="418" y="214" width="52" height="6" rx="3" fill="#ffffff" opacity="0.35"/><rect x="418" y="227" width="28" height="6" rx="3" fill="#ffffff" opacity="0.25"/><rect x="418" y="240" width="46" height="6" rx="3" fill="#ffffff" opacity="0.18"/>
    </g>
    <g transform="rotate(-3 548.0 200)">
      <rect x="504" y="128" width="88" height="144" rx="10" fill="#2b3342" stroke="#3b4557" stroke-width="1.5"/>
      <polygon points="548.0,145.0 569.1,155.2 574.3,178.0 559.7,196.3 536.3,196.3 521.7,178.0 526.9,155.2" fill="#d9534f" stroke="#8e2b28" stroke-width="1.9" stroke-linejoin="round"/><g stroke="#ffffff" stroke-width="2.7" stroke-linecap="round" fill="none"><circle cx="548.0" cy="172" r="15.1"/><line x1="548.0" y1="167.7" x2="548.0" y2="150.9"/><line x1="551.4" y1="169.3" x2="564.5" y2="158.9"/><line x1="552.2" y1="173.0" x2="568.5" y2="176.7"/><line x1="549.9" y1="175.9" x2="557.1" y2="191.0"/><line x1="546.1" y1="175.9" x2="538.9" y2="191.0"/><line x1="543.8" y1="173.0" x2="527.5" y2="176.7"/><line x1="544.6" y1="169.3" x2="531.5" y2="158.9"/></g><circle cx="548.0" cy="172" r="4.3" fill="#ffffff"/>
      <circle cx="580" cy="140" r="4.5" fill="#d9534f"/>
      <rect x="518" y="214" width="36" height="6" rx="3" fill="#ffffff" opacity="0.35"/><rect x="518" y="227" width="32" height="6" rx="3" fill="#ffffff" opacity="0.25"/><rect x="518" y="240" width="52" height="6" rx="3" fill="#ffffff" opacity="0.18"/>
    </g>
    <g transform="rotate(2 648.0 200)">
      <rect x="604" y="128" width="88" height="144" rx="10" fill="#2b3342" stroke="#3b4557" stroke-width="1.5"/>
      <polygon points="648.0,145.0 669.1,155.2 674.3,178.0 659.7,196.3 636.3,196.3 621.7,178.0 626.9,155.2" fill="#7b68d8" stroke="#463a91" stroke-width="1.9" stroke-linejoin="round"/><g stroke="#ffffff" stroke-width="2.7" stroke-linecap="round" fill="none"><circle cx="648.0" cy="172" r="15.1"/><line x1="648.0" y1="167.7" x2="648.0" y2="150.9"/><line x1="651.4" y1="169.3" x2="664.5" y2="158.9"/><line x1="652.2" y1="173.0" x2="668.5" y2="176.7"/><line x1="649.9" y1="175.9" x2="657.1" y2="191.0"/><line x1="646.1" y1="175.9" x2="638.9" y2="191.0"/><line x1="643.8" y1="173.0" x2="627.5" y2="176.7"/><line x1="644.6" y1="169.3" x2="631.5" y2="158.9"/></g><circle cx="648.0" cy="172" r="4.3" fill="#ffffff"/>
      <circle cx="680" cy="140" r="4.5" fill="#4caf6a"/>
      <rect x="618" y="214" width="42" height="6" rx="3" fill="#ffffff" opacity="0.35"/><rect x="618" y="227" width="36" height="6" rx="3" fill="#ffffff" opacity="0.25"/><rect x="618" y="240" width="58" height="6" rx="3" fill="#ffffff" opacity="0.18"/>
    </g>
  </g>
</svg>
